<svg xmlns="http://www.w3.org/2000/svg" xmlns:xlink="http://www.w3.org/1999/xlink" width="500" zoomAndPan="magnify" viewBox="0 0 375 374.999991" height="500" preserveAspectRatio="xMidYMid meet" version="1.0"><defs><clipPath id="9f9ab4cc66"><path d="M 94.804688 51.472656 L 280.019531 51.472656 L 280.019531 323.722656 L 94.804688 323.722656 Z M 94.804688 51.472656 " clip-rule="nonzero"/></clipPath></defs><g clip-path="url(#9f9ab4cc66)"><path fill="#231815" d="M 263.183594 289.996094 C 263.183594 299.292969 255.628906 306.859375 246.34375 306.859375 L 128.480469 306.859375 C 119.195312 306.859375 111.640625 299.292969 111.640625 289.996094 L 111.640625 135.46875 L 141.882812 135.46875 C 160.449219 135.46875 175.558594 120.335938 175.558594 101.734375 L 175.558594 68.339844 L 246.34375 68.339844 C 255.628906 68.339844 263.183594 75.90625 263.183594 85.207031 Z M 158.71875 80.898438 L 158.71875 101.734375 C 158.71875 111.035156 151.167969 118.601562 141.882812 118.601562 L 122.707031 118.601562 Z M 246.34375 51.472656 L 163.527344 51.472656 L 94.804688 123.414062 L 94.804688 289.996094 C 94.804688 308.59375 109.910156 323.726562 128.480469 323.726562 L 246.34375 323.726562 C 264.914062 323.726562 280.019531 308.59375 280.019531 289.996094 L 280.019531 85.207031 C 280.019531 66.609375 264.914062 51.472656 246.34375 51.472656 " fill-opacity="1" fill-rule="nonzero"/></g><path fill="#231815" d="M 235.738281 148.402344 L 145.316406 148.402344 C 140.667969 148.402344 136.898438 152.179688 136.898438 156.835938 C 136.898438 161.492188 140.667969 165.269531 145.316406 165.269531 L 235.738281 165.269531 C 240.386719 165.269531 244.15625 161.492188 244.15625 156.835938 C 244.15625 152.179688 240.386719 148.402344 235.738281 148.402344 " fill-opacity="1" fill-rule="nonzero"/><path fill="#231815" d="M 234.523438 182.136719 L 144.105469 182.136719 C 139.457031 182.136719 135.6875 185.910156 135.6875 190.570312 C 135.6875 195.226562 139.457031 199 144.105469 199 L 234.523438 199 C 239.175781 199 242.945312 195.226562 242.945312 190.570312 C 242.945312 185.910156 239.175781 182.136719 234.523438 182.136719 " fill-opacity="1" fill-rule="nonzero"/><path fill="#231815" d="M 233.3125 215.867188 L 142.894531 215.867188 C 138.242188 215.867188 134.472656 219.640625 134.472656 224.300781 C 134.472656 228.957031 138.242188 232.734375 142.894531 232.734375 L 233.3125 232.734375 C 237.960938 232.734375 241.730469 228.957031 241.730469 224.300781 C 241.730469 219.640625 237.960938 215.867188 233.3125 215.867188 " fill-opacity="1" fill-rule="nonzero"/><path fill="#231815" d="M 232.097656 249.601562 L 141.679688 249.601562 C 137.03125 249.601562 133.261719 253.375 133.261719 258.03125 C 133.261719 262.691406 137.03125 266.464844 141.679688 266.464844 L 232.097656 266.464844 C 236.75 266.464844 240.519531 262.691406 240.519531 258.03125 C 240.519531 253.375 236.75 249.601562 232.097656 249.601562 " fill-opacity="1" fill-rule="nonzero"/></svg>